HIERARCHY
ROOT Hips
{
	OFFSET -0.001795 -0.223333 0.028219
	CHANNELS 6 Xposition Yposition Zposition Zrotation Yrotation Xrotation 
	JOINT LeftUpLeg
	{
		OFFSET 0.069520 -0.091406 -0.006815
		CHANNELS 3 Zrotation Yrotation Xrotation
		JOINT LeftLeg
		{
			OFFSET 0.034277 -0.375199 -0.004496
			CHANNELS 3 Zrotation Yrotation Xrotation
			JOINT LeftFoot
			{
				OFFSET -0.013596 -0.397961 -0.043693
				CHANNELS 3 Zrotation Yrotation Xrotation
				JOINT LeftToe
				{
					OFFSET 0.026358 -0.055791 0.119288
					CHANNELS 3 Zrotation Yrotation Xrotation
					End Site
					{
						OFFSET 0.000000 0.000000 0.000000
					}
				}
			}
		}
	}
	JOINT RightUpLeg
	{
		OFFSET -0.067670 -0.090522 -0.004320
		CHANNELS 3 Zrotation Yrotation Xrotation
		JOINT RightLeg
		{
			OFFSET -0.038290 -0.382569 -0.008850
			CHANNELS 3 Zrotation Yrotation Xrotation
			JOINT RightFoot
			{
				OFFSET 0.015774 -0.398415 -0.042312
				CHANNELS 3 Zrotation Yrotation Xrotation
				JOINT RightToe
				{
					OFFSET -0.025372 -0.048144 0.123348
					CHANNELS 3 Zrotation Yrotation Xrotation
					End Site
					{
						OFFSET 0.000000 0.000000 0.000000
					}
				}
			}
		}
	}
	JOINT Spine
	{
		OFFSET -0.002533 0.108963 -0.026696
		CHANNELS 3 Zrotation Yrotation Xrotation
		JOINT Spine1
		{
			OFFSET 0.005487 0.135180 0.001092
			CHANNELS 3 Zrotation Yrotation Xrotation
			JOINT Spine2
			{
				OFFSET 0.001457 0.052922 0.025425
				CHANNELS 3 Zrotation Yrotation Xrotation
				JOINT Neck
				{
					OFFSET -0.002778 0.213870 -0.042857
					CHANNELS 3 Zrotation Yrotation Xrotation
					JOINT Head
					{
						OFFSET 0.005152 0.064970 0.051349
						CHANNELS 3 Zrotation Yrotation Xrotation
						End Site
						{
							OFFSET 0.000000 0.000000 0.000000
						}
					}
				}
				JOINT LeftShoulder
				{
					OFFSET 0.078845 0.121749 -0.034090
					CHANNELS 3 Zrotation Yrotation Xrotation
					JOINT LeftArm
					{
						OFFSET 0.090977 0.030469 -0.008868
						CHANNELS 3 Zrotation Yrotation Xrotation
						JOINT LeftForeArm
						{
							OFFSET 0.259612 -0.012772 -0.027456
							CHANNELS 3 Zrotation Yrotation Xrotation
							JOINT LeftHand
							{
								OFFSET 0.249234 0.008986 -0.001171
								CHANNELS 3 Zrotation Yrotation Xrotation
								End Site
								{
									OFFSET 0.000000 0.000000 0.000000
								}
							}
						}
					}
				}
				JOINT RightShoulder
				{
					OFFSET -0.081759 0.118833 -0.038615
					CHANNELS 3 Zrotation Yrotation Xrotation
					JOINT RightArm
					{
						OFFSET -0.096012 0.032551 -0.009143
						CHANNELS 3 Zrotation Yrotation Xrotation
						JOINT RightForeArm
						{
							OFFSET -0.253742 -0.013329 -0.021401
							CHANNELS 3 Zrotation Yrotation Xrotation
							JOINT RightHand
							{
								OFFSET -0.255298 0.007772 -0.005559
								CHANNELS 3 Zrotation Yrotation Xrotation
								End Site
								{
									OFFSET 0.000000 0.000000 0.000000
								}
							}
						}
					}
				}
			}
		}
	}
}
MOTION
Frames: 14
Frame Time: 0.050000
0.000000 0.911107 0.000000 -0.470337 -8.077633 -2.092680 4.015527 -0.755308 -17.432743 -2.375930 1.031787 36.089994 3.049444 7.601935 5.383693 0.000000 0.000000 0.000000 -2.476838 0.561793 -6.126331 -0.779213 1.945241 25.662342 -5.645248 -10.260587 -9.760333 0.000000 0.000000 0.000000 4.837646 -0.965533 13.004966 -3.771083 1.381281 -23.122279 -1.867052 10.447396 23.276295 9.973974 -3.523524 -24.030020 0.000000 0.000000 0.000000 -0.868647 -36.490434 12.225506 -24.105835 -51.445487 4.730538 -131.606580 -78.279916 126.000398 0.000000 0.000000 0.000000 14.326634 19.817871 10.004952 59.049879 48.031775 18.850888 104.052910 62.320515 84.552623 0.000000 0.000000 0.000000 
-0.004629 0.910882 0.006974 -1.354516 -7.521351 -1.017029 4.973580 -0.663303 -19.118121 -1.865286 0.746588 37.768389 2.694949 7.171134 6.242353 0.000000 0.000000 0.000000 -1.423906 0.640579 -6.752364 -0.844687 2.010129 26.595415 -5.342912 -9.190713 -10.407712 0.000000 0.000000 0.000000 4.992405 -0.930500 11.787838 -2.970042 1.180564 -22.731160 -3.229824 10.153121 21.806468 10.591626 -3.680818 -24.847483 0.000000 0.000000 0.000000 -2.940924 -36.467482 12.780892 -22.684202 -51.933733 4.351543 -126.518648 -73.173425 115.419900 0.000000 0.000000 0.000000 17.048287 20.795899 11.102184 58.290526 46.646832 17.661735 114.769409 60.531176 94.267630 0.000000 0.000000 0.000000 
-0.008240 0.910571 0.013908 -0.703435 -5.757604 -0.939544 3.778190 -0.910255 -18.189616 -0.814621 -0.067519 36.402871 2.337302 6.277697 4.910241 0.000000 0.000000 0.000000 -1.424729 0.544331 -5.740234 -2.005692 2.205031 25.918612 -5.281390 -9.242795 -10.694675 0.000000 0.000000 0.000000 5.259173 -0.989599 11.912259 -4.633401 1.637067 -23.831260 -2.410244 10.025484 22.006322 10.452517 -3.649599 -23.881015 0.000000 0.000000 0.000000 -2.857303 -38.129977 13.267593 -23.557251 -50.068472 4.321032 -127.195432 -71.004970 113.762582 0.000000 0.000000 0.000000 16.188652 19.591688 10.544535 57.924226 43.243810 15.445360 118.067572 58.267819 96.459296 0.000000 0.000000 0.000000 
-0.010361 0.912062 0.020618 -0.440678 -5.511174 -0.639077 3.280527 -0.993893 -17.964219 -0.343613 -0.322524 36.082502 2.235283 6.207990 5.336021 0.000000 0.000000 0.000000 -1.226523 0.603674 -6.344981 -2.797585 2.525836 26.600279 -5.100790 -9.320113 -9.374794 0.000000 0.000000 0.000000 5.445552 -0.975242 11.377845 -4.524826 1.606943 -24.985170 -3.328332 10.905157 22.642170 11.796678 -4.483775 -23.156629 0.000000 0.000000 0.000000 -1.698086 -39.248677 13.241887 -23.324159 -49.173915 3.942683 -130.200444 -68.775917 114.797734 0.000000 0.000000 0.000000 16.358302 18.691137 10.380011 58.928722 43.558756 16.027212 117.857839 57.532611 96.163960 0.000000 0.000000 0.000000 
-0.011295 0.912844 0.026700 -0.131197 -5.304051 -1.027634 2.586369 -1.064634 -17.084167 0.220378 -0.612090 35.889130 2.181220 6.171249 5.548539 0.000000 0.000000 0.000000 -1.455323 0.590538 -6.279777 -3.101947 2.687919 27.252957 -4.907191 -9.312459 -8.090315 0.000000 0.000000 0.000000 5.188532 -0.928331 11.178888 -5.385851 1.832229 -24.107522 -3.172133 10.283167 22.067626 11.988118 -4.596084 -23.506544 0.000000 0.000000 0.000000 -2.710061 -39.154458 13.534347 -22.935239 -47.042092 3.594148 -130.386257 -66.645354 112.945537 0.000000 0.000000 0.000000 15.789724 19.005465 10.291295 56.802219 42.157782 14.388607 122.169090 57.531488 101.125962 0.000000 0.000000 0.000000 
-0.011360 0.913173 0.031669 -0.044326 -5.091591 -1.317639 2.344264 -1.078645 -16.590060 0.403795 -0.730980 36.053401 2.080919 6.057983 5.779958 0.000000 0.000000 0.000000 -1.436670 0.603254 -6.430530 -3.270619 2.904867 28.834710 -4.793882 -9.177365 -7.717811 0.000000 0.000000 0.000000 5.096874 -0.942623 11.532931 -5.730500 1.912062 -24.859291 -3.476209 9.993240 22.524189 12.249102 -4.877378 -23.202470 0.000000 0.000000 0.000000 -3.960571 -39.154645 13.886110 -22.649274 -46.576061 3.444133 -130.009097 -66.422326 112.339468 0.000000 0.000000 0.000000 16.353211 19.217853 10.496772 53.992171 42.453802 13.396710 124.539006 57.772822 104.210312 0.000000 0.000000 0.000000 
-0.010667 0.913506 0.034903 -0.037717 -5.479718 -1.651750 2.386014 -1.037981 -16.171279 0.179956 -0.569740 36.366329 2.154365 6.286601 6.218490 0.000000 0.000000 0.000000 -1.451734 0.693050 -7.419622 -3.344407 3.196787 30.805488 -4.575240 -9.191974 -6.038164 0.000000 0.000000 0.000000 5.311422 -0.979055 11.870738 -5.888740 1.945070 -24.858707 -3.837755 9.994724 22.222023 12.896819 -5.357011 -23.012444 0.000000 0.000000 0.000000 -4.365397 -39.168729 14.021022 -22.127875 -46.053368 3.242648 -132.316879 -66.387760 115.252231 0.000000 0.000000 0.000000 16.304118 19.535276 10.585781 51.689435 43.509833 13.123078 124.481585 57.483551 103.314747 0.000000 0.000000 0.000000 
-0.009699 0.912903 0.036493 0.127053 -6.026962 -1.939382 2.413967 -1.015732 -16.095262 -0.311638 -0.248060 36.989827 2.290928 6.619008 6.671667 0.000000 0.000000 0.000000 -1.388757 0.836395 -8.916813 -3.450475 3.636133 33.531423 -4.635070 -9.912684 -4.521839 0.000000 0.000000 0.000000 5.463736 -1.007879 12.226850 -6.297775 2.046744 -24.539532 -4.162168 9.754222 21.884953 13.079126 -5.391819 -23.711406 0.000000 0.000000 0.000000 -4.964025 -39.142705 14.245466 -21.993741 -46.545971 3.338293 -133.333997 -67.247278 117.638550 0.000000 0.000000 0.000000 16.300905 19.781204 10.573495 50.114295 45.011632 13.317894 122.661412 56.820876 99.542101 0.000000 0.000000 0.000000 
-0.008605 0.911797 0.036837 0.251314 -6.581539 -2.021155 2.651749 -0.985329 -16.473663 -1.028296 0.204319 37.844733 2.408775 6.914839 7.152757 0.000000 0.000000 0.000000 -1.005974 1.095479 -11.287820 -3.464068 4.166817 36.924123 -5.081670 -11.940642 -1.940587 0.000000 0.000000 0.000000 5.379626 -1.026457 12.744811 -6.291749 2.044007 -24.339637 -4.694795 9.217112 21.365748 13.285042 -5.457846 -24.450667 0.000000 0.000000 0.000000 -5.070433 -39.345873 14.471702 -22.348688 -47.483676 3.690904 -134.441786 -69.334404 121.421001 0.000000 0.000000 0.000000 16.002201 20.572003 10.707236 48.132307 46.402962 13.287181 120.878085 56.595929 96.163401 0.000000 0.000000 0.000000 
-0.008021 0.910549 0.036766 0.320632 -6.399441 -2.509836 3.045858 -0.925494 -16.445794 -1.751679 0.541699 38.579576 2.218907 6.633237 7.329836 0.000000 0.000000 0.000000 -1.283408 1.241106 -12.928692 -2.663197 4.161061 39.852985 -5.214246 -13.071642 0.905538 0.000000 0.000000 0.000000 5.592899 -1.087611 13.353994 -6.599584 2.140967 -23.882192 -4.974049 8.196102 21.169906 13.114872 -5.347133 -25.088816 0.000000 0.000000 0.000000 -5.185237 -39.633329 14.718966 -21.893416 -48.731497 3.824837 -135.659009 -71.830967 125.513783 0.000000 0.000000 0.000000 15.480139 21.276841 10.733294 46.448294 47.101633 12.987097 119.919400 56.705797 94.322533 0.000000 0.000000 0.000000 
-0.008066 0.909290 0.036829 0.389299 -6.603269 -2.632707 3.395905 -0.864799 -16.438307 -2.376791 0.895975 38.832039 2.255852 6.663511 7.214730 0.000000 0.000000 0.000000 -1.513904 1.296292 -13.642339 -2.676703 4.367481 41.062195 -4.713397 -12.077643 1.493314 0.000000 0.000000 0.000000 5.824933 -1.134286 13.710765 -6.780786 2.186218 -23.851042 -5.286895 7.803106 21.490725 12.838467 -5.287327 -25.054079 0.000000 0.000000 0.000000 -5.004608 -40.480488 15.053411 -20.526027 -49.182796 3.454505 -140.355084 -74.610963 133.739029 0.000000 0.000000 0.000000 15.142503 21.836099 10.821324 44.564195 48.303773 12.768299 120.471346 56.754976 94.602274 0.000000 0.000000 0.000000 
-0.008403 0.909826 0.037156 0.561600 -6.348215 -2.653074 3.604699 -0.835123 -16.324308 -2.916236 1.108532 38.575426 2.067357 6.365124 7.313421 0.000000 0.000000 0.000000 -1.367158 1.292408 -13.509061 -2.740339 4.253545 40.296203 -5.473937 -14.097270 2.779387 0.000000 0.000000 0.000000 6.248829 -1.195162 13.831820 -6.899826 2.222228 -23.840766 -5.940134 7.317653 21.482935 13.291689 -5.423498 -25.902294 0.000000 0.000000 0.000000 -4.583079 -40.589834 14.989945 -20.448502 -49.634068 3.516555 -141.841040 -76.343626 136.920153 0.000000 0.000000 0.000000 15.230249 22.204374 10.953454 43.563073 48.531209 12.460823 119.669018 55.928299 92.285366 0.000000 0.000000 0.000000 
-0.008632 0.911050 0.037729 0.884017 -6.125288 -2.368971 3.519236 -0.858995 -16.365956 -3.299910 1.242100 38.016296 1.924307 6.161589 7.486275 0.000000 0.000000 0.000000 -1.704582 1.234078 -13.247021 -2.556077 3.968774 39.072217 -6.012618 -15.330984 3.077187 0.000000 0.000000 0.000000 6.503544 -1.198736 13.412149 -6.705734 2.173184 -23.864490 -6.276719 7.393833 21.585775 13.387379 -5.273986 -26.730137 0.000000 0.000000 0.000000 -4.695940 -40.746606 15.069661 -20.268387 -49.527079 3.418667 -144.688282 -76.472967 140.406386 0.000000 0.000000 0.000000 15.692816 22.359713 11.193739 43.875001 48.365311 12.490983 118.595611 56.216745 91.509268 0.000000 0.000000 0.000000 
-0.008392 0.912262 0.038749 1.286511 -5.971488 -1.877481 2.975823 -0.954431 -16.466687 -3.209447 1.153339 37.266550 1.920691 6.151892 7.467978 0.000000 0.000000 0.000000 -1.994425 1.207821 -13.238791 -2.740887 3.903484 38.053313 -6.353409 -16.092437 3.209795 0.000000 0.000000 0.000000 6.791372 -1.214749 13.081344 -6.881719 2.202485 -24.351994 -6.204361 7.334081 21.828847 13.421291 -5.013057 -28.066573 0.000000 0.000000 0.000000 -4.255946 -40.750065 14.941981 -20.511682 -48.883519 3.401131 -149.650052 -75.334205 145.875486 0.000000 0.000000 0.000000 14.972586 22.490369 11.108358 45.173588 48.794560 13.231773 117.863034 57.107285 91.859326 0.000000 0.000000 0.000000 
